custom-analysis
version=1
nRows=4
nColumns=98
inDegrees=no

This file contains tibia displacement and acting force.

Units are S.I. units (seconds, meters, Newtons, ...)
Angles are in degrees.

endheader
time	APT	SIT	knee_angle	aACL_R_force	pACL_R_force	aPCL_R_force	pPCL_R_force	aMCL_R_force	mMCL_R_force	pMCL_R_force	aLCL_R_force	mLCL_R_force	pLCL_R_force	aPCL_L_force	pPCL_L_force	aMCL_L_force	aLCL_L_force	aACL_R_length	pACL_R_length	aPCL_R_length	pPCL_R_length	aMCL_R_length	mMCL_R_length	pMCL_R_length	aLCL_R_length	mLCL_R_length	pLCL_R_length	aPCL_L_length	pPCL_L_length	aMCL_L_length	aLCL_L_length	aACL_R_strain	pACL_R_strain	aPCL_R_strain	pPCL_R_strain	aMCL_R_strain	mMCL_R_strain	pMCL_R_strain	aLCL_R_strain	mLCL_R_strain	pLCL_R_strain	aPCL_L_strain	pPCL_L_strain	aMCL_L_strain	aLCL_L_strain	femur_lat_meniscii_r.femur_lat_r.force.X	femur_lat_meniscii_r.femur_lat_r.force.Y	femur_lat_meniscii_r.femur_lat_r.force.Z	femur_lat_meniscii_r.femur_lat_r.torque.X	femur_lat_meniscii_r.femur_lat_r.torque.Y	femur_lat_meniscii_r.femur_lat_r.torque.Z	femur_lat_meniscii_r.meniscus_lat_r.force.X	femur_lat_meniscii_r.meniscus_lat_r.force.Y	femur_lat_meniscii_r.meniscus_lat_r.force.Z	femur_lat_meniscii_r.meniscus_lat_r.torque.X	femur_lat_meniscii_r.meniscus_lat_r.torque.Y	femur_lat_meniscii_r.meniscus_lat_r.torque.Z	femur_med_meniscii_r.femur_med_r.force.X	femur_med_meniscii_r.femur_med_r.force.Y	femur_med_meniscii_r.femur_med_r.force.Z	femur_med_meniscii_r.femur_med_r.torque.X	femur_med_meniscii_r.femur_med_r.torque.Y	femur_med_meniscii_r.femur_med_r.torque.Z	femur_med_meniscii_r.meniscus_med_r.force.X	femur_med_meniscii_r.meniscus_med_r.force.Y	femur_med_meniscii_r.meniscus_med_r.force.Z	femur_med_meniscii_r.meniscus_med_r.torque.X	femur_med_meniscii_r.meniscus_med_r.torque.Y	femur_med_meniscii_r.meniscus_med_r.torque.Z	femur_med_tibia_r.tibia_upper_r.force.X	femur_med_tibia_r.tibia_upper_r.force.Y	femur_med_tibia_r.tibia_upper_r.force.Z	femur_med_tibia_r.tibia_upper_r.torque.X	femur_med_tibia_r.tibia_upper_r.torque.Y	femur_med_tibia_r.tibia_upper_r.torque.Z	femur_med_tibia_r.femur_med_r.force.X	femur_med_tibia_r.femur_med_r.force.Y	femur_med_tibia_r.femur_med_r.force.Z	femur_med_tibia_r.femur_med_r.torque.X	femur_med_tibia_r.femur_med_r.torque.Y	femur_med_tibia_r.femur_med_r.torque.Z	femur_lat_tibia_r.tibia_upper_r.force.X	femur_lat_tibia_r.tibia_upper_r.force.Y	femur_lat_tibia_r.tibia_upper_r.force.Z	femur_lat_tibia_r.tibia_upper_r.torque.X	femur_lat_tibia_r.tibia_upper_r.torque.Y	femur_lat_tibia_r.tibia_upper_r.torque.Z	femur_lat_tibia_r.femur_lat_r.force.X	femur_lat_tibia_r.femur_lat_r.force.Y	femur_lat_tibia_r.femur_lat_r.force.Z	femur_lat_tibia_r.femur_lat_r.torque.X	femur_lat_tibia_r.femur_lat_r.torque.Y	femur_lat_tibia_r.femur_lat_r.torque.Z	femur_lat_meniscii_force_r	femur_med_meniscii_force_r	femur_lat_tibia_force_r	femur_med_tibia_force_r
      0.21048410	      0.01371549	      0.02617065	     81.40015316	     -9.85673199	      0.00000000	    972.48177078	    629.22306754	     36.50686129	      0.00000000	      0.00000000	      0.00000000	      0.00000000	      0.00000000	      0.00000000	      0.00000000	      0.00000001	      0.00000000	      0.03112613	      0.02447408	      0.03716089	      0.03391205	      0.06135425	      0.05977619	      0.05641819	      0.05044197	      0.04499774	      0.03996704	      0.01525851	      0.01651186	      0.06550154	      0.04489616	      0.00389058	     -0.02333016	      0.19506442	      0.13464531	      0.02211096	     -0.00028942	     -0.03933064	     -0.09888373	     -0.20101455	     -0.23643535	      0.00000079	     -0.32847694	      0.00000060	     -0.00000086	    201.42249977	    166.67708580	     41.40491892	    -20.47955702	      4.94224069	     79.44155610	   -201.42249977	   -166.67708580	    -41.40491892	      4.49826634	     -6.49616498	      4.55800675	      0.18147921	     -0.00460422	     -0.04522548	      0.01791708	     -0.00291953	      0.07216109	     -0.18147921	      0.00460422	      0.04522548	     -0.00008202	      0.00375908	     -0.00067870	   -997.84307127	   -417.32958068	    284.80950525	     -8.69591906	     22.93945816	      3.35620554	    997.84307127	    417.32958068	   -284.80950525	    121.96651243	    -17.34247834	    401.69369583	    -67.13337240	    -34.09967969	    -21.03702425	      1.08924634	     -2.39182003	      0.40299894	     67.13337240	     34.09967969	     21.03702425	     -9.31709895	      1.67751611	     27.01157367	    264.70104204	      0.18708620	     78.18077919	   1118.46825081
      0.21057662	      0.01370901	      0.02618710	     81.44925983	     -9.64478730	      0.00000000	    973.29795100	    629.30506491	     36.21864596	      0.00000000	      0.00000000	      0.00000000	      0.00000000	      0.00000000	      0.00000000	      0.00000000	      0.00000001	      0.00000000	      0.03112379	      0.02447485	      0.03716714	      0.03391774	      0.06135847	      0.05977939	      0.05642226	      0.05043723	      0.04499252	      0.03996319	      0.01525851	      0.01651186	      0.06550154	      0.04489616	      0.00381520	     -0.02329943	      0.19526568	      0.13483556	      0.02218123	     -0.00023603	     -0.03926128	     -0.09896829	     -0.20110733	     -0.23650878	      0.00000079	     -0.32847694	      0.00000060	     -0.00000086	    202.38035406	    166.61228671	     40.08862619	    -19.94971363	      4.95234681	     79.82694595	   -202.38035406	   -166.61228671	    -40.08862619	      4.48737861	     -6.47328291	      4.55308399	      0.16085028	     -0.00480865	     -0.04239174	      0.01677893	     -0.00258025	      0.06395424	     -0.16085028	      0.00480865	      0.04239174	     -0.00006181	      0.00338698	     -0.00061467	   -989.24016687	   -411.89228116	    284.43121179	     -8.61521248	     22.82046413	      3.28872914	    989.24016687	    411.89228116	   -284.43121179	    121.73002276	    -17.21520583	    398.23709394	    -67.85654593	    -34.42041931	    -21.14092856	      1.09764417	     -2.41308703	      0.40777712	     67.85654593	     34.42041931	     21.14092856	     -9.36606269	      1.69413234	     27.30212415	    265.18778204	      0.16641213	     78.96970908	   1108.67149024
      0.21079570	      0.01369406	      0.02622634	     81.56559888	     -9.11830918	      0.00000000	    974.44893770	    627.56763881	     34.66666748	      0.00000000	      0.00000000	      0.00000000	      0.00000000	      0.00000000	      0.00000000	      0.00000000	      0.00000001	      0.00000000	      0.03111849	      0.02447683	      0.03718143	      0.03393065	      0.06136816	      0.05978660	      0.05643154	      0.05042564	      0.04497975	      0.03995367	      0.01525851	      0.01651186	      0.06550154	      0.04489616	      0.00364409	     -0.02322027	      0.19572504	      0.13526742	      0.02234262	     -0.00011532	     -0.03910333	     -0.09917534	     -0.20133397	     -0.23669073	      0.00000079	     -0.32847694	      0.00000060	     -0.00000086	    210.07740120	    168.42969681	     36.85567752	    -18.68613537	      5.10022427	     82.91330637	   -210.07740120	   -168.42969681	    -36.85567752	      4.50290417	     -6.55158950	      4.56383620	      0.11562893	     -0.00490531	     -0.03455157	      0.01365548	     -0.00184665	      0.04598551	     -0.11562893	      0.00490531	      0.03455157	     -0.00003100	      0.00253728	     -0.00048841	   -972.94751487	   -400.39466623	    283.25320180	     -8.43788170	     22.57524821	      3.12782695	    972.94751487	    400.39466623	   -283.25320180	    121.07559773	    -16.96710389	    391.69933212	    -69.86512492	    -35.07265854	    -21.33059276	      1.11414859	     -2.46805310	      0.41067972	     69.86512492	     35.07265854	     21.33059276	     -9.45660656	      1.73892104	     28.11264706	    271.77089290	      0.12078047	     81.03222350	   1089.57566592
      0.21125130	      0.01366476	      0.02630959	     81.80776768	     -8.47167823	      0.00000000	    976.18231580	    623.17733111	     30.76014326	     18.69811651	      0.00000000	      0.00000000	      0.00000000	      0.00000000	      0.00000000	      0.00000000	      0.00000001	      0.00000000	      0.03110822	      0.02448136	      0.03720837	      0.03395464	      0.06138659	      0.05979972	      0.05644883	      0.05039947	      0.04495110	      0.03993159	      0.01525851	      0.01651186	      0.06550154	      0.04489616	      0.00331308	     -0.02303948	      0.19659146	      0.13607038	      0.02264971	      0.00010401	     -0.03880897	     -0.09964288	     -0.20184274	     -0.23711253	      0.00000079	     -0.32847694	      0.00000060	     -0.00000086	    228.71642991	    172.92924636	     30.92577147	    -16.39834081	      5.47682129	     90.38442346	   -228.71642991	   -172.92924636	    -30.92577147	      4.56468327	     -6.81120694	      4.59481455	      0.04201158	     -0.00362331	     -0.01722854	      0.00680261	     -0.00068409	      0.01672565	     -0.04201158	      0.00362331	      0.01722854	     -0.00001023	      0.00106212	     -0.00024202	   -951.46589562	   -381.04325052	    281.04518011	     -8.12389213	     22.21911987	      2.80401831	    951.46589562	    381.04325052	   -281.04518011	    119.87548810	    -16.62631244	    383.10878699	    -75.56676958	    -36.41851200	    -22.20989985	      1.15534007	     -2.63835963	      0.39547195	     75.56676958	     36.41851200	     22.20989985	     -9.84316637	      1.87129442	     30.42170176	    288.39579209	      0.04555133	     86.77513660	   1062.76418013
